<?xml version="1.0" standalone="no"?>
<!DOCTYPE svg PUBLIC "-//W3C//DTD SVG 20010904//EN"
 "http://www.w3.org/TR/2001/REC-SVG-20010904/DTD/svg10.dtd">
<svg version="1.0" xmlns="http://www.w3.org/2000/svg"
 width="1575.000000pt" height="1503.000000pt" viewBox="0 0 1575.000000 1503.000000"
 preserveAspectRatio="xMidYMid meet">
<metadata>
Created by potrace 1.10, written by Peter Selinger 2001-2011
</metadata>
<g transform="translate(0.000000,1503.000000) scale(0.100000,-0.100000)"
fill="#000000" stroke="none">
<path d="M6829 14641 c-64 -9 -139 -67 -180 -139 -28 -49 -33 -67 -33 -127 0
-62 4 -78 35 -134 29 -53 46 -71 98 -104 l63 -40 156 -9 c87 -5 202 -18 257
-28 55 -11 147 -25 205 -30 57 -5 136 -19 175 -29 39 -11 115 -27 168 -36 54
-8 114 -22 133 -30 20 -8 66 -20 102 -26 37 -6 83 -18 102 -27 19 -8 71 -25
115 -37 44 -13 105 -32 135 -43 30 -10 78 -27 105 -37 28 -9 75 -26 105 -36
30 -11 71 -28 90 -38 19 -10 53 -24 75 -31 22 -7 58 -23 80 -35 22 -13 58 -28
80 -35 22 -7 47 -18 55 -25 8 -7 37 -20 63 -30 26 -10 50 -21 52 -26 3 -4 56
-33 118 -64 61 -31 141 -74 177 -96 36 -21 83 -49 105 -60 22 -12 53 -32 68
-45 16 -13 32 -24 37 -24 10 0 107 -65 135 -90 11 -10 34 -25 50 -34 17 -9 46
-28 65 -41 34 -23 48 -34 120 -92 19 -16 62 -48 95 -73 54 -39 157 -125 225
-187 79 -72 105 -96 191 -179 236 -228 444 -462 604 -684 11 -15 38 -52 61
-81 22 -30 47 -65 54 -79 7 -14 25 -39 39 -56 14 -17 34 -44 43 -60 10 -16 36
-58 59 -94 22 -36 50 -81 60 -100 11 -19 35 -60 54 -90 19 -30 59 -106 90
-167 31 -62 60 -115 65 -118 5 -3 14 -22 20 -43 7 -20 22 -53 34 -72 13 -19
29 -53 36 -75 7 -22 24 -60 37 -84 12 -24 23 -50 23 -58 0 -7 12 -37 26 -65
26 -51 41 -89 85 -218 12 -36 32 -92 45 -126 12 -33 26 -78 30 -100 3 -21 17
-64 30 -95 12 -30 28 -87 35 -125 6 -38 20 -91 30 -117 11 -27 26 -94 34 -150
8 -56 22 -124 30 -152 9 -27 20 -95 26 -150 5 -55 19 -149 30 -210 48 -268 48
-1042 0 -1330 -11 -66 -25 -166 -31 -223 -6 -56 -18 -124 -26 -150 -8 -26 -21
-93 -29 -149 -8 -56 -23 -123 -34 -150 -10 -26 -24 -79 -30 -117 -7 -38 -23
-95 -35 -125 -13 -31 -27 -74 -30 -95 -4 -22 -18 -67 -30 -100 -13 -34 -33
-90 -45 -126 -36 -107 -104 -278 -146 -365 -13 -27 -27 -61 -31 -75 -4 -14
-17 -41 -29 -60 -13 -19 -28 -52 -35 -72 -6 -21 -15 -40 -20 -43 -5 -3 -34
-56 -65 -118 -54 -108 -72 -140 -120 -217 -12 -19 -41 -69 -65 -110 -24 -41
-51 -83 -59 -93 -8 -10 -24 -34 -36 -52 -31 -52 -113 -170 -148 -215 -18 -22
-45 -57 -60 -77 -182 -246 -393 -479 -653 -720 -54 -51 -108 -101 -119 -111
-32 -31 -168 -144 -219 -182 -26 -19 -68 -53 -94 -74 -26 -22 -76 -59 -112
-82 -36 -24 -83 -57 -105 -73 -47 -36 -81 -59 -148 -98 -27 -15 -62 -38 -77
-50 -15 -13 -32 -23 -38 -23 -5 0 -27 -12 -48 -27 -21 -15 -59 -37 -84 -50
-25 -14 -72 -40 -105 -58 -33 -19 -76 -41 -95 -50 -19 -8 -46 -22 -60 -31 -24
-15 -53 -28 -170 -81 -30 -13 -77 -35 -105 -49 -27 -13 -70 -31 -95 -40 -24
-8 -54 -21 -66 -29 -12 -8 -44 -20 -71 -26 -26 -7 -64 -20 -84 -30 -20 -10
-58 -23 -85 -30 -27 -7 -66 -20 -86 -31 -21 -10 -68 -25 -105 -32 -38 -8 -88
-24 -113 -35 -25 -10 -67 -22 -95 -26 -27 -4 -84 -17 -125 -30 -42 -13 -110
-28 -152 -34 -43 -6 -110 -20 -150 -31 -40 -11 -127 -25 -193 -31 -66 -5 -149
-17 -186 -24 -137 -29 -336 -38 -744 -32 -347 4 -415 8 -510 25 -60 12 -162
26 -225 32 -63 6 -155 22 -205 35 -49 13 -117 26 -150 30 -33 4 -87 16 -120
27 -33 11 -94 26 -137 33 -42 8 -90 21 -106 29 -16 8 -59 22 -96 30 -37 9 -79
22 -94 30 -15 8 -57 22 -92 31 -36 9 -78 25 -95 35 -16 10 -48 22 -70 26 -22
4 -64 20 -94 35 -30 16 -61 29 -69 29 -9 0 -39 14 -69 30 -29 17 -58 30 -65
30 -10 0 -135 56 -183 83 -11 6 -47 25 -80 42 -197 103 -262 138 -275 150 -8
7 -35 23 -60 35 -25 12 -54 30 -65 39 -11 9 -49 34 -85 56 -36 21 -75 47 -88
58 -21 19 -41 33 -121 82 -19 11 -52 35 -75 53 -22 18 -52 42 -66 53 -14 11
-44 34 -66 52 -23 17 -65 50 -94 72 -29 22 -62 49 -74 60 -11 11 -59 53 -106
94 -100 88 -368 355 -460 460 -36 40 -74 83 -85 95 -11 11 -31 35 -45 53 -14
17 -52 66 -85 108 -104 131 -124 158 -180 240 -30 44 -73 105 -95 135 -22 30
-49 74 -60 97 -11 23 -25 45 -30 48 -6 4 -22 27 -36 53 -13 26 -43 76 -64 112
-22 36 -51 88 -64 116 -13 28 -28 54 -34 58 -6 3 -16 23 -23 44 -6 20 -20 49
-31 64 -10 15 -24 42 -30 60 -6 18 -22 49 -35 68 -12 19 -23 42 -23 50 0 9
-16 47 -35 86 -19 38 -35 75 -35 83 0 8 -11 33 -24 55 -13 23 -27 57 -31 76
-4 19 -18 55 -30 80 -12 25 -28 69 -34 98 -6 29 -19 69 -30 90 -10 20 -24 62
-31 92 -7 30 -23 82 -36 115 -12 33 -25 83 -29 110 -4 28 -16 71 -26 97 -10
25 -23 86 -30 134 -6 48 -20 117 -30 153 -11 36 -26 122 -34 191 -8 69 -24
181 -35 250 -11 69 -24 199 -28 290 -9 161 -10 166 -40 214 -48 74 -96 110
-178 131 -68 18 -73 18 -135 1 -67 -19 -107 -48 -167 -120 l-34 -41 5 -255 c4
-221 7 -264 25 -320 12 -36 26 -119 31 -186 6 -67 18 -141 26 -165 9 -24 23
-89 31 -144 8 -55 26 -138 40 -185 13 -46 24 -96 24 -110 1 -14 10 -50 21 -80
11 -30 28 -89 38 -130 10 -41 25 -89 34 -107 10 -18 24 -62 33 -99 8 -37 23
-83 33 -103 10 -20 22 -52 26 -71 4 -19 20 -62 36 -95 16 -33 29 -66 29 -73 0
-7 13 -39 30 -72 17 -33 30 -65 30 -72 0 -7 13 -40 29 -73 104 -214 122 -253
135 -275 8 -14 32 -62 55 -107 23 -46 52 -99 66 -119 14 -20 25 -42 25 -49 0
-7 13 -29 30 -50 16 -20 32 -46 36 -58 4 -12 16 -33 26 -47 11 -14 26 -38 34
-55 13 -28 41 -70 81 -124 10 -13 27 -38 38 -56 33 -53 77 -117 125 -179 25
-32 52 -68 60 -80 40 -58 166 -216 208 -261 11 -11 62 -69 114 -130 208 -239
455 -475 733 -699 17 -13 46 -37 65 -53 68 -55 219 -166 321 -233 154 -102
187 -125 209 -141 14 -11 41 -27 60 -35 19 -9 48 -26 64 -37 29 -20 51 -33
145 -83 25 -13 52 -31 61 -39 9 -8 35 -21 59 -30 23 -8 54 -23 69 -33 15 -11
44 -25 64 -31 20 -7 42 -18 48 -26 6 -8 28 -19 48 -26 20 -6 60 -24 88 -40 28
-16 58 -29 66 -29 8 0 40 -13 71 -30 31 -17 62 -30 69 -30 6 0 41 -13 77 -29
131 -56 177 -74 243 -92 36 -10 83 -26 105 -37 21 -11 58 -23 83 -27 25 -4 71
-18 104 -31 32 -13 85 -28 119 -34 33 -6 81 -20 107 -30 26 -10 84 -24 129
-30 45 -6 109 -20 142 -30 33 -11 99 -24 147 -30 48 -6 130 -20 182 -31 52
-11 175 -27 275 -35 99 -7 227 -20 285 -26 133 -16 624 -16 745 0 50 7 173 19
275 26 102 8 226 24 275 35 50 11 131 24 181 30 51 6 112 18 135 27 24 8 94
23 154 34 61 10 126 25 145 33 19 8 62 20 95 27 33 6 87 22 120 34 33 13 78
27 100 31 21 3 56 15 77 26 20 10 61 24 90 30 29 6 73 22 98 34 25 12 67 27
94 34 27 7 61 20 75 31 15 10 45 23 69 29 24 7 64 23 89 36 25 14 52 25 59 25
12 0 119 50 184 86 14 8 79 41 145 75 66 33 141 73 166 87 26 15 73 42 105 60
63 35 107 61 164 97 34 21 51 32 134 88 22 15 54 35 70 45 15 9 46 31 67 47
21 17 61 46 89 65 29 19 82 59 118 88 37 29 89 69 115 90 293 228 779 718 987
995 19 26 57 75 83 108 27 34 63 85 82 113 19 28 48 69 64 91 17 22 37 52 45
66 9 15 36 56 60 92 25 37 65 99 88 139 24 40 51 87 61 103 10 17 31 55 47 85
17 30 34 62 39 70 5 8 18 33 28 55 11 22 27 54 36 70 9 17 37 74 63 127 25 54
50 100 55 103 4 3 15 27 23 53 8 26 26 69 40 96 14 27 26 58 26 68 0 10 14 44
30 75 17 31 30 63 30 72 0 9 11 37 25 62 13 26 29 68 36 95 7 27 20 65 30 85
9 19 22 63 29 97 6 34 22 86 35 114 14 29 25 63 25 76 0 12 13 59 29 105 16
46 32 112 36 147 4 35 16 89 27 119 10 31 26 106 34 166 8 61 22 136 30 168 8
31 21 119 29 195 7 75 22 180 32 232 15 83 18 156 18 565 0 416 -2 478 -17
538 -10 38 -23 134 -29 215 -6 90 -19 182 -34 237 -13 50 -28 137 -34 195 -6
58 -19 128 -30 156 -11 28 -23 76 -27 105 -4 30 -17 82 -30 116 -13 34 -28 92
-34 129 -6 36 -18 81 -27 98 -9 17 -24 60 -33 96 -10 36 -26 88 -37 115 -12
28 -28 73 -38 100 -9 28 -28 81 -41 120 -14 38 -31 79 -39 91 -8 12 -19 43
-26 68 -6 25 -22 60 -35 77 -13 18 -24 40 -24 50 0 9 -13 43 -29 75 -16 32
-50 102 -76 154 -25 52 -62 122 -80 155 -33 58 -76 137 -119 220 -12 22 -29
52 -39 65 -10 14 -38 57 -62 95 -24 39 -53 84 -65 100 -11 17 -44 65 -73 109
-85 128 -181 258 -233 316 -17 19 -50 62 -73 95 -53 76 -246 289 -402 444
-149 149 -365 348 -409 378 -14 9 -41 30 -61 47 -20 17 -47 40 -60 51 -22 18
-167 126 -279 207 -25 18 -51 39 -58 46 -8 6 -23 17 -35 23 -12 7 -53 32 -90
58 -98 66 -166 108 -214 131 -23 11 -45 24 -47 29 -3 5 -29 21 -58 36 -29 14
-79 41 -111 58 -31 18 -101 54 -155 80 -53 27 -109 55 -124 63 -106 54 -216
104 -230 104 -6 0 -38 13 -72 29 -75 35 -156 69 -216 88 -25 8 -70 25 -100 38
-30 13 -79 28 -108 34 -29 6 -70 20 -90 30 -21 11 -62 24 -92 29 -31 6 -79 20
-107 31 -28 11 -90 27 -138 36 -47 9 -100 22 -118 30 -18 7 -71 19 -117 25
-47 6 -121 20 -164 31 -44 11 -135 27 -203 35 -67 8 -154 21 -192 29 -63 13
-117 18 -331 29 -36 2 -86 0 -111 -3z"/>
<path d="M6804 13606 c-62 -15 -115 -55 -157 -121 -30 -46 -32 -55 -32 -140 0
-85 2 -93 32 -135 50 -72 84 -98 153 -119 83 -26 170 -38 345 -51 84 -6 164
-17 200 -29 33 -10 101 -24 152 -30 50 -6 120 -22 155 -35 34 -13 85 -27 111
-30 27 -4 68 -16 91 -26 24 -10 69 -23 102 -30 32 -7 81 -23 109 -35 27 -13
70 -30 95 -38 77 -25 187 -71 320 -135 36 -17 85 -40 110 -51 52 -24 238 -125
290 -158 19 -13 38 -23 41 -23 6 0 182 -113 229 -147 13 -10 54 -38 90 -63 36
-25 98 -72 139 -105 322 -263 543 -480 725 -713 46 -59 96 -120 111 -137 30
-35 67 -87 91 -130 9 -16 29 -44 43 -61 14 -18 40 -55 56 -84 17 -28 40 -64
51 -78 12 -15 33 -49 48 -77 37 -69 57 -104 82 -145 11 -19 26 -51 33 -71 6
-20 21 -45 31 -54 11 -10 20 -23 20 -29 0 -10 67 -162 97 -221 16 -31 40 -92
98 -250 72 -196 110 -319 125 -402 6 -33 21 -92 34 -130 13 -37 26 -102 30
-143 4 -41 18 -118 31 -170 66 -268 67 -1136 1 -1443 -13 -62 -27 -139 -31
-172 -4 -33 -18 -94 -31 -135 -13 -41 -28 -106 -34 -144 -6 -38 -20 -90 -30
-115 -11 -25 -24 -68 -30 -96 -6 -27 -19 -68 -30 -91 -10 -23 -25 -66 -34 -96
-8 -29 -27 -75 -41 -102 -14 -27 -25 -57 -25 -65 0 -9 -9 -34 -21 -56 -12 -21
-27 -58 -34 -81 -7 -24 -22 -55 -32 -71 -11 -15 -26 -45 -32 -65 -7 -20 -18
-42 -26 -48 -8 -6 -22 -33 -32 -58 -9 -26 -30 -67 -45 -91 -15 -25 -28 -50
-28 -57 0 -6 -7 -18 -17 -25 -9 -8 -24 -32 -34 -55 -10 -22 -27 -49 -39 -59
-11 -10 -20 -23 -20 -29 0 -20 -82 -144 -151 -229 -14 -18 -32 -43 -39 -57
-16 -31 -28 -46 -199 -250 -211 -251 -556 -578 -753 -713 -37 -25 -96 -67
-130 -92 -63 -46 -159 -109 -237 -155 -23 -14 -58 -35 -78 -48 -47 -31 -292
-157 -323 -167 -14 -4 -41 -18 -60 -31 -19 -13 -42 -24 -51 -24 -8 0 -38 -11
-65 -25 -27 -14 -70 -32 -97 -40 -26 -8 -60 -21 -75 -30 -33 -18 -154 -61
-237 -82 -33 -8 -88 -26 -122 -39 -34 -13 -91 -28 -126 -34 -35 -5 -89 -19
-120 -29 -31 -11 -92 -25 -135 -31 -42 -6 -121 -19 -175 -30 -154 -31 -355
-44 -707 -44 -360 -1 -624 15 -739 43 -42 11 -117 24 -167 30 -50 6 -122 22
-160 35 -38 13 -91 27 -118 31 -28 4 -73 16 -100 27 -28 11 -75 24 -105 30
-31 5 -76 20 -101 33 -25 12 -62 25 -83 29 -20 4 -65 20 -100 36 -34 17 -69
30 -77 30 -8 0 -31 10 -50 21 -19 12 -53 28 -74 36 -36 12 -72 28 -166 72 -14
6 -56 29 -95 51 -38 21 -92 50 -120 65 -123 64 -161 87 -329 201 -15 10 -42
28 -60 39 -17 11 -58 40 -90 65 -32 25 -69 52 -82 61 -14 9 -32 24 -42 33 -9
9 -62 53 -117 97 -55 44 -111 92 -125 106 -222 223 -309 263 -459 211 -53 -19
-71 -32 -107 -76 -49 -60 -59 -103 -52 -212 5 -59 10 -75 41 -117 20 -26 44
-55 54 -63 10 -9 57 -52 104 -95 164 -153 261 -240 277 -249 10 -5 52 -37 94
-70 43 -34 92 -71 110 -84 18 -13 58 -40 88 -62 139 -99 233 -160 246 -160 6
0 28 -14 49 -30 21 -17 43 -30 50 -30 7 0 29 -13 50 -30 21 -16 43 -30 50 -30
7 0 32 -13 56 -30 24 -16 51 -30 60 -30 9 0 34 -12 55 -26 21 -15 52 -31 69
-37 16 -6 46 -21 65 -34 19 -12 42 -23 50 -23 9 0 47 -16 86 -35 38 -19 76
-35 84 -35 8 0 33 -9 55 -21 38 -21 102 -45 235 -89 36 -12 88 -30 115 -41 28
-10 83 -25 123 -34 40 -8 85 -21 100 -29 15 -8 57 -19 92 -26 36 -6 103 -22
150 -35 47 -14 128 -29 180 -35 52 -6 111 -15 130 -20 75 -20 174 -30 425 -45
324 -19 467 -19 765 0 285 18 331 23 395 40 28 8 96 19 153 25 56 6 124 18
150 26 26 8 94 26 152 39 108 24 221 55 300 81 25 9 83 27 129 40 46 14 93 31
105 39 11 7 41 19 66 25 24 7 66 23 92 36 26 13 54 24 61 24 8 0 38 13 68 29
30 15 68 32 86 35 18 4 43 16 57 27 14 11 44 26 67 34 24 9 50 22 59 30 9 8
34 21 56 28 22 8 57 26 78 41 21 14 44 26 51 26 6 0 29 13 51 30 21 16 44 30
50 30 5 0 26 12 45 26 19 14 48 32 64 40 41 20 114 68 302 201 97 69 119 86
289 224 172 141 275 238 491 465 75 79 119 131 301 357 81 102 241 338 338
500 64 107 85 144 107 187 13 25 31 59 40 75 9 17 23 46 31 65 8 19 21 46 29
60 39 66 147 310 147 332 0 8 11 36 25 62 14 26 30 68 36 94 7 26 22 67 34 92
13 25 26 65 30 90 4 25 17 70 30 100 12 30 26 78 30 105 4 28 17 81 30 118 13
37 29 102 35 144 5 41 19 105 30 142 11 36 26 134 35 216 9 83 23 191 32 240
14 74 17 162 17 500 1 373 -1 423 -22 555 -12 80 -26 193 -32 253 -6 59 -19
135 -30 170 -10 34 -24 98 -30 142 -7 44 -21 103 -31 131 -11 28 -26 86 -34
128 -8 42 -21 89 -29 104 -7 15 -19 54 -27 87 -7 33 -22 80 -34 105 -12 25
-27 66 -34 92 -6 26 -22 68 -36 94 -14 26 -25 54 -25 62 0 19 -98 243 -145
332 -7 14 -39 75 -69 135 -51 99 -72 136 -141 253 -30 50 -69 113 -91 146 -10
16 -30 46 -44 67 -85 129 -151 222 -200 281 -30 37 -71 88 -90 115 -19 26 -46
60 -60 74 -14 15 -41 46 -60 69 -19 23 -120 128 -225 234 -186 188 -340 327
-460 416 -33 24 -65 50 -72 58 -7 8 -23 22 -36 31 -51 34 -134 93 -187 131
-30 22 -69 46 -86 54 -17 8 -37 22 -45 32 -7 9 -32 25 -54 36 -54 26 -125 68
-160 96 -15 12 -33 22 -40 22 -7 0 -30 12 -51 26 -21 15 -52 31 -69 37 -16 5
-42 19 -57 29 -15 10 -42 24 -60 30 -18 6 -49 21 -68 34 -19 12 -53 28 -75 34
-22 7 -51 21 -65 30 -14 10 -45 23 -70 30 -25 6 -55 18 -68 26 -22 15 -84 38
-222 84 -36 12 -85 30 -110 41 -25 10 -78 26 -118 34 -40 8 -85 21 -101 29
-15 8 -59 20 -97 26 -38 7 -103 22 -144 35 -41 13 -115 28 -165 34 -49 6 -115
18 -145 26 -53 14 -127 23 -403 45 -148 12 -137 12 -203 -4z"/>
<path d="M6761 12562 c-57 -30 -79 -49 -109 -92 -36 -54 -37 -57 -37 -150 0
-92 1 -96 34 -142 49 -67 120 -108 206 -120 39 -5 115 -18 170 -28 55 -11 149
-27 210 -35 60 -8 132 -24 160 -34 27 -10 75 -22 105 -26 30 -4 85 -20 122
-36 36 -16 74 -29 83 -29 9 0 47 -13 85 -30 38 -16 76 -30 86 -30 10 0 40 -13
68 -28 28 -16 64 -32 80 -36 17 -4 42 -16 57 -27 15 -11 46 -26 69 -34 23 -8
53 -24 67 -35 14 -11 31 -20 38 -20 6 0 31 -13 56 -28 24 -16 78 -48 119 -72
41 -24 86 -52 100 -62 14 -11 50 -36 80 -58 229 -161 455 -365 623 -562 152
-177 255 -312 312 -409 17 -28 40 -63 52 -78 34 -42 213 -387 228 -441 4 -14
18 -43 30 -65 13 -22 26 -56 30 -75 4 -19 15 -48 25 -65 10 -16 23 -57 30 -90
7 -33 21 -77 32 -98 11 -21 26 -73 34 -115 8 -43 21 -94 30 -116 8 -21 23
-100 34 -175 10 -75 27 -179 36 -231 33 -178 22 -784 -16 -905 -5 -16 -16 -86
-24 -155 -8 -69 -22 -142 -30 -162 -9 -21 -21 -61 -27 -90 -12 -61 -62 -220
-91 -293 -11 -27 -26 -70 -33 -95 -14 -50 -75 -189 -110 -250 -8 -14 -35 -68
-60 -120 -47 -97 -101 -191 -115 -200 -4 -3 -15 -20 -24 -37 -19 -38 -55 -94
-91 -143 -14 -19 -46 -62 -70 -95 -97 -132 -175 -222 -306 -355 -139 -141
-191 -189 -339 -310 -73 -60 -236 -175 -329 -232 -125 -76 -148 -89 -191 -109
-25 -12 -56 -29 -70 -39 -14 -9 -40 -22 -58 -28 -18 -6 -45 -20 -60 -30 -15
-11 -45 -25 -67 -32 -22 -7 -53 -20 -70 -29 -16 -10 -52 -23 -80 -30 -27 -7
-65 -21 -83 -32 -18 -10 -62 -26 -98 -34 -36 -8 -77 -21 -93 -29 -15 -8 -59
-20 -97 -27 -38 -6 -91 -20 -117 -30 -26 -11 -91 -24 -145 -29 -53 -6 -135
-19 -182 -30 -49 -11 -163 -24 -269 -30 -190 -11 -202 -14 -283 -68 -51 -33
-108 -146 -108 -211 0 -52 32 -128 75 -179 15 -18 54 -46 86 -63 48 -24 71
-29 129 -29 96 0 548 56 640 80 41 10 107 24 145 30 39 6 102 21 140 34 39 13
97 30 130 39 75 19 234 74 249 86 6 5 38 17 71 26 33 10 76 26 95 36 19 10 55
27 80 38 25 11 56 26 70 34 14 8 79 41 144 73 66 33 147 77 181 99 34 22 79
51 101 63 104 63 161 101 289 197 253 188 606 538 767 758 36 51 75 101 86
113 26 25 86 113 95 138 4 10 16 30 28 45 39 50 99 146 99 158 0 6 10 24 23
40 13 15 45 73 72 128 26 55 53 107 60 115 7 8 18 33 25 55 7 22 21 51 30 65
10 14 23 45 30 70 6 25 20 59 30 76 10 17 25 57 34 88 9 30 25 70 35 88 11 18
23 56 26 83 4 28 18 75 30 105 13 30 26 75 30 100 3 25 17 77 30 115 13 39 28
113 35 165 6 52 20 128 30 168 53 200 49 1070 -5 1282 -8 30 -21 98 -29 150
-8 53 -22 115 -31 139 -8 23 -20 73 -26 109 -6 37 -20 84 -30 104 -11 21 -26
69 -34 108 -8 39 -23 87 -34 108 -10 20 -22 52 -26 70 -4 19 -20 59 -36 89
-16 30 -29 61 -29 69 0 8 -13 40 -30 71 -16 31 -30 63 -30 72 0 9 -9 30 -21
46 -11 17 -31 53 -45 80 -14 28 -40 77 -59 110 -18 33 -45 83 -59 110 -14 28
-37 66 -51 85 -68 97 -85 123 -130 195 -24 39 -60 87 -135 177 -30 37 -70 87
-88 110 -63 80 -335 359 -406 416 -39 31 -85 70 -103 87 -57 54 -164 140 -209
167 -16 10 -49 33 -74 53 -66 51 -150 106 -187 121 -17 8 -35 18 -38 24 -4 6
-27 22 -53 35 -26 14 -74 41 -107 60 -33 20 -76 42 -95 51 -19 8 -66 30 -105
49 -38 20 -74 35 -78 35 -5 0 -21 8 -35 19 -15 10 -52 26 -82 36 -30 10 -64
24 -75 31 -11 7 -48 19 -83 28 -34 9 -72 22 -85 30 -12 8 -51 22 -85 31 -35 9
-85 24 -110 34 -26 10 -78 24 -117 30 -38 7 -95 20 -125 31 -31 10 -103 24
-160 30 -58 6 -142 20 -188 31 -46 10 -116 19 -156 19 -65 0 -81 -4 -145 -38z"/>
<path d="M6237 11080 c-111 -11 -216 -27 -256 -39 -37 -11 -100 -27 -140 -36
-39 -8 -81 -21 -94 -29 -12 -8 -50 -22 -85 -31 -34 -8 -77 -25 -95 -35 -18
-11 -39 -20 -48 -20 -13 0 -114 -49 -259 -127 -323 -173 -700 -525 -899 -838
-21 -33 -46 -73 -57 -90 -37 -57 -148 -278 -184 -365 -12 -30 -30 -83 -40
-116 -10 -34 -24 -72 -31 -85 -7 -13 -23 -69 -35 -124 -13 -55 -29 -123 -38
-152 -52 -182 -47 -846 9 -1043 13 -47 29 -111 34 -144 6 -32 18 -72 26 -89 9
-17 22 -57 31 -89 8 -32 26 -79 39 -104 14 -26 25 -57 25 -69 0 -12 10 -37 23
-56 12 -19 29 -50 37 -69 8 -19 27 -55 42 -79 15 -25 28 -50 28 -57 0 -6 6
-17 14 -23 8 -7 24 -31 35 -54 22 -43 30 -55 129 -191 130 -179 359 -405 552
-546 134 -98 141 -103 180 -123 19 -10 62 -33 95 -52 109 -60 241 -125 256
-125 8 0 41 -13 74 -29 33 -16 78 -33 100 -37 22 -4 62 -17 90 -29 27 -12 83
-28 124 -35 41 -7 104 -21 140 -31 165 -47 808 -47 972 0 36 10 99 24 140 31
41 7 99 23 129 35 30 13 73 26 95 30 22 4 55 16 72 26 18 10 54 25 80 32 46
14 129 52 183 84 14 8 48 25 77 38 28 13 54 29 58 35 4 7 26 20 49 31 49 23
92 52 229 156 78 60 109 88 242 218 137 135 217 225 263 293 15 23 49 74 76
114 77 116 93 141 113 179 88 174 123 247 123 259 0 8 9 30 20 48 11 18 27 59
34 90 8 31 23 77 34 102 12 25 26 75 31 110 6 36 20 94 32 130 22 71 48 353
49 525 0 182 -27 452 -55 544 -14 47 -25 96 -25 110 -1 14 -10 51 -21 81 -11
30 -29 84 -39 120 -11 36 -29 88 -41 115 -42 95 -90 200 -104 225 -8 14 -25
45 -37 70 -13 25 -33 59 -45 77 -13 17 -23 34 -23 37 0 23 -155 229 -276 366
-130 147 -344 335 -483 423 -19 12 -53 34 -75 50 -23 15 -61 37 -86 49 -25 11
-59 32 -76 44 -17 13 -35 24 -40 24 -5 0 -36 13 -69 30 -94 46 -201 90 -237
97 -18 3 -50 15 -72 25 -21 11 -70 26 -110 34 -39 8 -100 24 -136 35 -79 24
-430 59 -580 58 -58 -1 -190 -9 -293 -19z"/>
</g>
</svg>
